<svg xmlns="http://www.w3.org/2000/svg" width="150.73" height="124.605" viewBox="0 0 150.73 124.605">
  <g>
    <rect width="150.73" height="124.605" style="fill: none"/>
    <path d="M410.64489,346.8587a4.63,4.63,0,0,1-.3803,1.9613,3.80477,3.80477,0,0,1-1.00059,1.3407,4.00941,4.00941,0,0,1-1.42071.7653,5.60908,5.60908,0,0,1-3.2819,0,4.05863,4.05863,0,0,1-1.4258-.7653A3.72627,3.72627,0,0,1,402.135,348.82a4.68585,4.68585,0,0,1-.37521-1.9613v-5.5236H403.861v5.3337a3.39383,3.39383,0,0,0,.18,1.1757,2.04715,2.04715,0,0,0,.49539.7853,1.88171,1.88171,0,0,0,.7454.435,3.20152,3.20152,0,0,0,1.8411,0,1.88033,1.88033,0,0,0,.7454-.435,2.04225,2.04225,0,0,0,.4952-.7853,3.38411,3.38411,0,0,0,.1802-1.1757v-5.3337h2.1012Zm-19.3717-5.7637a2.826,2.826,0,0,0-2.5258,1.4033v-1.1626h-2.0649v9.5822h2.0848v-5.3725c0-1.5837.6816-2.4658,2.0449-2.4658a3.39427,3.39427,0,0,1,1.303.2407l.6415-1.9646a4.45677,4.45677,0,0,0-1.4835-.2607Zm7.4245,0a2.826,2.826,0,0,0-2.5258,1.4033v-1.1626H394.107v9.5822h2.08479v-5.3725c0-1.5837.6816-2.4658,2.0449-2.4658a3.39427,3.39427,0,0,1,1.303.2407l.6415-1.9646a4.45672,4.45672,0,0,0-1.4835-.2607Zm-27.6518,5.0317a4.84132,4.84132,0,0,0,5.11211,5.0319,5.01954,5.01954,0,0,0,3.44789-1.1429l-1.0023-1.6839a4.21127,4.21127,0,0,1-2.5059.862,3.07264,3.07264,0,0,1,0-6.134,4.21127,4.21127,0,0,1,2.5059.862l1.0023-1.6839a5.01954,5.01954,0,0,0-3.44789-1.1429,4.84127,4.84127,0,0,0-5.11211,5.0317Zm49.607-4.0292a7.16477,7.16477,0,0,0-3.9091-1.0025c-2.4257,0-3.9892,1.1628-3.9892,3.0672,0,1.5636,1.1627,2.5259,3.3075,2.8267l.9824.1403c1.1426.1603,1.6839.461,1.6839,1.0023,0,.7416-.7618,1.1627-2.1851,1.1627a5.10523,5.10523,0,0,1-3.1875-1.0023l-.9822,1.6236a6.91365,6.91365,0,0,0,4.1497,1.2431c2.7664,0,4.3701-1.3033,4.3701-3.1275,0-1.6839-1.2629-2.5659-3.3478-2.8666l-.9822-.1403c-.9021-.1203-1.6238-.3006-1.6238-.9421,0-.7016.6815-1.1227,1.8243-1.1227a6.1758,6.1758,0,0,1,2.9869.822Zm3.5037,7.4314a.95216.95216,0,0,1,.3762.0746.97407.97407,0,0,1,.3074.2036.95951.95951,0,0,1,.2071.3027.93387.93387,0,0,1,0,.7371.96337.96337,0,0,1-.2071.3015.99463.99463,0,0,1-.3074.2048.9375.9375,0,0,1-.3762.0759.96828.96828,0,0,1-.89759-.5822.936.936,0,0,1,0-.7371.96511.96511,0,0,1,.20619-.3027.94728.94728,0,0,1,.3085-.2036A.9798.9798,0,0,1,424.15659,349.5289Zm0,1.6905a.70572.70572,0,0,0,.2866-.0582.75247.75247,0,0,0,.2327-.1584.74018.74018,0,0,0-.2327-1.2049.71521.71521,0,0,0-.2866-.0572.74568.74568,0,0,0-.2922.0572.72836.72836,0,0,0-.2363.157.7409.7409,0,0,0,.5285,1.2645Zm.0559-1.1853a.40231.40231,0,0,1,.2621.0757.25312.25312,0,0,1,.0919.2061.23974.23974,0,0,1-.0733.1803.3496.3496,0,0,1-.2085.0874l.2888.333h-.2258l-.2678-.3307h-.0862v.3307h-.1886v-.8825Zm-.2188.1655v.2351h.2166a.214.214,0,0,0,.1188-.0292.09977.09977,0,0,0,.0441-.0896.0979.0979,0,0,0-.0441-.0874.21492.21492,0,0,0-.1188-.0289Zm-39.7664-12.1751a1.4481,1.4481,0,0,1-1.4805,1.4607,1.43144,1.43144,0,0,1-1.4605-1.4607,1.44794,1.44794,0,0,1,1.4605-1.4803A1.46457,1.46457,0,0,1,384.22729,338.0245Zm-.4202,12.8943h-2.1006v-9.5834h2.1006Z" transform="translate(-320.63459 -243.6975)" style="fill: #fff"/>
    <rect x="59.6149" y="24.948" width="31.5" height="56.6064" style="fill: #007ad0"/>
    <path d="M382.24969,296.9487a35.93765,35.93765,0,0,1,13.7499-28.3032,36,36,0,1,0,0,56.6064A35.9378,35.9378,0,0,1,382.24969,296.9487Z" transform="translate(-320.63459 -243.6975)" style="fill: #0066ba"/>
    <path d="M450.81019,319.2565v-1.1589h.4673v-.2361h-1.1901v.2361h.4675v1.1589Zm2.3105,0v-1.3973h-.3648l-.4196.9611-.4197-.9611h-.365v1.3973h.2576v-1.054l.3935.9087h.2671l.3935-.911v1.0563Z" transform="translate(-320.63459 -243.6975)" style="fill: #00a2e5"/>
    <path d="M454.24479,296.9487a35.99867,35.99867,0,0,1-58.2452,28.3032,36.00518,36.00518,0,0,0,0-56.6064,35.99867,35.99867,0,0,1,58.2452,28.3032Z" transform="translate(-320.63459 -243.6975)" style="fill: #00a2e5"/>
  </g>
</svg>
